<?xml version="1.0" standalone="no"?>
<!DOCTYPE svg PUBLIC "-//W3C//DTD SVG 20010904//EN" "http://www.w3.org/TR/2001/REC-SVG-20010904/DTD/svg10.dtd">
<!-- Created using Krita: https://krita.org -->
<svg xmlns="http://www.w3.org/2000/svg" 
    xmlns:xlink="http://www.w3.org/1999/xlink"
    xmlns:krita="http://krita.org/namespaces/svg/krita"
    xmlns:sodipodi="http://sodipodi.sourceforge.net/DTD/sodipodi-0.dtd"
    width="400pt"
    height="400pt"
    viewBox="0 0 400 400">
<defs/>
<path id="shape0" transform="matrix(0.571428571428571 0 0 0.571428571428571 190.857142857143 206.857142857143)" fill="none" stroke="#ffffff" stroke-width="8" stroke-linecap="square" stroke-linejoin="bevel" d="M0 316L84 268L90 0L0 38L0 316" sodipodi:nodetypes="ccccc"/><path id="shape1" transform="matrix(0.571428571428571 0 0 0.571428571428571 294.857142857143 204)" fill="none" stroke="#ffffff" stroke-width="8" stroke-linecap="square" stroke-linejoin="bevel" d="M82 169L94 0L4 43L0 134L82 169" sodipodi:nodetypes="ccccc"/><path id="shape2" transform="matrix(0.571428571428571 0 0 0.571428571428571 322.857142857143 113.714285714286)" fill="none" stroke="#ffffff" stroke-width="8" stroke-linecap="square" stroke-linejoin="bevel" d="M51 79L56 0L0 61L51 79" sodipodi:nodetypes="cccc"/><path id="shape3" transform="matrix(0.571428571428571 0 0 0.571428571428571 190.857142857143 102.857142857143)" fill="none" stroke="#ffffff" stroke-width="8" stroke-linecap="square" stroke-linejoin="bevel" d="M0 128L92 92L94 0L0 32L0 128" sodipodi:nodetypes="ccccc"/><path id="shape4" transform="matrix(0.571428571428571 0 0 0.571428571428571 241.142857142857 52)" fill="none" stroke="#ffffff" stroke-width="8" stroke-linecap="square" stroke-linejoin="bevel" d="M0 355L188 265L176 435L239 400L273 0L205 23L2 271L0 355" sodipodi:nodetypes="cccccccc"/><path id="shape5" transform="matrix(0.571428571428571 0 0 0.571428571428571 289.142857142857 113.142857142857)" fill="none" stroke="#ffffff" stroke-width="8" stroke-linecap="square" stroke-linejoin="bevel" d="M0 128L110 81L115 0L0 128" sodipodi:nodetypes="cccc"/><path id="shape6" transform="matrix(0.571428571428571 0 0 0.571428571428571 53.1428571428571 213.142857142857)" fill="none" stroke="#ffffff" stroke-width="8" stroke-linecap="square" stroke-linejoin="bevel" d="M6 100L90 64L89 42L0 0L6 100" sodipodi:nodetypes="ccccc"/><path id="shape7" transform="matrix(0.571428571428571 0 0 0.571428571428571 47.4285714285714 120.571428571429)" fill="none" stroke="#ffffff" stroke-width="8" stroke-linecap="square" stroke-linejoin="bevel" d="M93 52L93 36L0 0L5 81Z" sodipodi:nodetypes="ccccc"/><path id="shape8" transform="matrix(0.571428571428571 0 0 0.571428571428571 56.5714285714286 250.285714285714)" fill="none" stroke="#ffffff" stroke-width="8" stroke-linecap="square" stroke-linejoin="bevel" d="M171 127L169 41L84 0L0 35L171 127" sodipodi:nodetypes="ccccc"/><path id="shape9" transform="matrix(0.571428571428571 0 0 0.571428571428571 50.2857142857143 150.285714285714)" fill="none" stroke="#ffffff" stroke-width="8" stroke-linecap="square" stroke-linejoin="bevel" d="M246 137L336 98L88 0L0 30L246 137" sodipodi:nodetypes="ccccc"/><path id="shape10" transform="matrix(0.571428571428571 0 0 0.571428571428571 3.99999999999999 13.1428571428572)" fill="none" stroke="#ffffff" stroke-width="8" stroke-linecap="square" stroke-linejoin="bevel" d="M327 188L421 157L265 109L368 78L307 61L202 89L148 72L381 14L328 0L0 78L327 188" sodipodi:nodetypes="ccccccccccc"/><path id="shape11" transform="matrix(0.571428571428571 0 0 0.571428571428571 305.714285714286 39.4285714285715)" fill="none" stroke="#ffffff" stroke-width="8" stroke-linecap="square" stroke-linejoin="bevel" d="M0 21L92 44L160 21L69 0L0 21" sodipodi:nodetypes="ccccc"/><path id="shape12" transform="matrix(0.571428571428571 0 0 0.571428571428571 289.142857142857 149.142857142857)" fill="none" stroke="#ffffff" stroke-width="8" stroke-linecap="square" stroke-linejoin="bevel" d="M58 0L110 17L0 65L58 0" sodipodi:nodetypes="cccc"/><path id="shape13" transform="matrix(0.571428571428571 0 0 0.571428571428571 190.857142857143 52)" fill="none" stroke="#ffffff" stroke-width="8" stroke-linecap="square" stroke-linejoin="bevel" d="M90 270L293 23L201 0L93.075 126.181L92 181L23.1776 207.902L0 235L90 270" sodipodi:nodetypes="cccccccc"/><path id="shape14" transform="matrix(0.571428571428571 0 0 0.571428571428571 155.428571428571 58.2857142857143)" fill="none" stroke="#ffffff" stroke-width="8" stroke-linecap="square" stroke-linejoin="bevel" d="M103 60L103 0L0 29L103 60" sodipodi:nodetypes="cccc"/><path id="shape15" transform="matrix(0.571428571428571 0 0 0.571428571428571 89.1428571428571 20.5714285714286)" fill="none" stroke="#ffffff" stroke-width="8" stroke-linecap="square" stroke-linejoin="bevel" d="M219 77L231 74L232 0L0 59L53 76L159 48L219 64L219 77" sodipodi:nodetypes="cccccccc"/><path id="shape16" transform="matrix(0.571428571428571 0 0 0.571428571428571 3.42857142857139 58.2857142857143)" fill="none" stroke="#8c8c8c" stroke-width="8" stroke-linecap="square" stroke-linejoin="bevel" d="M328 576L31 404L0 0L328 110L328 206L77 110L81 192L328 298L328 576" sodipodi:nodetypes="ccccccccc"/><path id="shape17" transform="matrix(0.571428571428571 0 0 0.571428571428571 53.1428571428572 213.142857142857)" fill="none" stroke="#8c8c8c" stroke-width="8" stroke-linecap="square" stroke-linejoin="bevel" d="M6 100L176 192L174 83L0 0L6 100" sodipodi:nodetypes="ccccc"/>
</svg>
