<?xml version="1.0" standalone="no"?>
<!DOCTYPE svg PUBLIC "-//W3C//DTD SVG 20010904//EN" "http://www.w3.org/TR/2001/REC-SVG-20010904/DTD/svg10.dtd">
<!-- Created using Krita: https://krita.org -->
<svg xmlns="http://www.w3.org/2000/svg" 
    xmlns:xlink="http://www.w3.org/1999/xlink"
    xmlns:krita="http://krita.org/namespaces/svg/krita"
    xmlns:sodipodi="http://sodipodi.sourceforge.net/DTD/sodipodi-0.dtd"
    width="245.761pt"
    height="245.761pt"
    viewBox="0 0 245.761 245.761">
<defs/>
<path id="shape0" transform="translate(6.42048280597089, 88.9688256324379)" fill="#4d2689" fill-rule="evenodd" stroke="#2c1139" stroke-width="2.88001074628524" stroke-linecap="square" stroke-linejoin="bevel" d="M48.5397 116.232C53.555 116.232 55.3677 110.538 59.3398 108.552C61.9578 107.243 66.2799 106.915 69.1798 105.672C74.7884 103.268 79.5398 99.5319 85.0199 96.7919C87.5449 95.5293 89.4175 92.5692 91.9799 91.0318C101.07 85.578 109.002 77.0267 117.66 71.8318C121.801 69.3468 126.628 66.7041 129.9 63.4317C131.054 62.2781 133.204 62.2873 134.22 61.2717C136.081 59.4108 139.228 61.9601 139.5 58.1517C139.573 57.1318 132.89 47.6018 128.94 43.5117C122.371 34.9742 120.146 28.5425 117.42 25.2716C113.449 20.5068 107.075 15.1425 104.22 9.43154C102.004 5.00021 99.8421 0.886097 94.1399 0.071501C90.4719 -0.452492 87.8871 2.00423 85.7399 4.15152C83.408 6.48338 76.7227 9.23724 73.9798 10.1515C68.9198 11.8382 63.284 12.6542 58.1398 13.5116C55.4899 13.9532 52.8928 18.5295 50.6997 19.9916C47.6658 22.0142 43.7338 25.1238 40.1397 26.4716C37.911 27.3073 34.4754 28.0798 32.4597 29.5916C30.5739 31.0059 29.8684 34.0391 27.8996 35.3516C23.6506 38.1843 19.4111 35.2812 14.6996 40.3917C12.493 41.1272 1.0607 51.3494 0.059541 53.3517C-0.640336 54.7515 4.98665 65.013 8.69957 66.5518C9.91366 70.194 18.5503 87.8078 21.1796 91.7518C24.7525 97.1112 31.6681 98.7219 36.0597 103.992C40.9827 109.9 38.5603 116.232 48.5397 116.232Z" sodipodi:nodetypes="cccccccccccccccccccccccccc"/><path id="shape1" transform="translate(26.3962232278638, 81.7203046238273)" fill="#4d2689" fill-rule="evenodd" stroke="#2c1139" stroke-width="2.88001074628524" stroke-linecap="square" stroke-linejoin="bevel" d="M2.40388 20.1601C4.16855 14.8661 9.02286 10.8821 11.4039 6.12002C11.7071 5.51359 12.805 2.7438 13.9239 2.52001C14.1097 2.48286 16.0309 5.49501 16.0839 5.76002C16.6693 8.68709 18.269 17.2676 22.564 15.1201C25.041 13.8815 25.8757 10.9843 27.964 9.36003C30.1798 7.6366 34.1227 6.44132 35.884 4.68002C37.115 3.449 40.542 0 42.004 0C44.4679 0 46.7896 6.17822 49.2041 6.48002C63.9181 8.31928 75.3649 10.4805 87.7242 18.7201C90.293 20.4326 97.0871 26.1277 97.4442 29.5201C98.0458 35.2346 98.1081 40.5679 100.684 45.7202C101.384 47.1196 103.815 45.8589 105.364 46.0802C107.083 46.3257 116.763 48.8358 117.244 50.7602C118.285 54.9248 108.117 55.6026 105.364 56.5202C103.867 57.0193 99.109 57.1418 100.684 57.2402C110.166 57.8328 117.456 60.978 123.364 69.8403C124.022 70.8268 110.201 69.1294 105.724 70.9203C101.517 72.6031 98.5818 73.5219 94.9242 75.9603C92.7267 77.4253 93.8292 81.7203 89.5242 81.7203C85.2192 81.7203 77.3546 99.3604 68.4641 99.3604C59.5737 99.3604 51.0579 98.5038 42.184 98.6404C40.169 98.6714 40.5219 109.016 40.564 110.7C40.6225 113.04 40.285 120.016 40.744 117.72C41.5469 113.706 32.7636 109.798 32.104 105.84C31.6006 102.82 28.4452 99.3858 28.324 96.8404C28.3146 96.6431 28.6649 91.5066 27.244 91.0803C25.8569 90.6642 23.629 91.9113 22.384 92.1603C18.2401 92.9891 14.3886 93.8655 10.8639 95.0403C9.59655 95.4628 8.53956 95.7362 7.2639 96.4803C7.16309 96.5392 4.42023 97.9601 4.38389 97.5604C3.35665 86.2607 16.3316 84.739 15.7239 73.8003C15.5787 71.1856 11.8925 71.1646 10.3239 70.3803C9.69694 70.0668 9.56725 67.9669 9.24391 67.3202C7.51595 63.8643 3.21389 57.6396 3.21389 53.4002C3.21389 51.3726 1.7026 50.3757 1.14388 48.4202C0.330679 45.574 0.813734 39.0533 0.783876 37.6201C0.66332 31.8334 -1.6953 25.2841 2.40388 20.1601" sodipodi:nodetypes="cccccccccccccccccccccccccccccccccccccc"/><path id="shape2" transform="translate(46.3201713928335, 102.120377824629)" fill="#4d2689" fill-rule="evenodd" stroke="#2c1139" stroke-width="2.88001074628524" stroke-linecap="square" stroke-linejoin="bevel" d="M37.4401 101.88C36.3935 99.147 35.6467 97.3093 35.5201 96.3604C35.1748 93.7701 33.4287 89.1163 35.2801 87.0003C39.599 82.0645 38.7613 83.1984 45.8402 80.5203C48.6151 79.4526 48.9002 81.8206 49.4402 79.3203C48.2033 75.4803 46.9723 75.1724 45.8402 74.0403C39.4006 74.0403 37.1214 72.6404 31.8001 71.8803C29.2043 71.5094 28.4248 70.3861 26.1601 69.4803C11.692 63.693 8.74623 50.8388 4.32001 37.5601C2.60387 32.4117 0 28.9734 0 23.0401C0.620106 21.7999 -0.892779 19.7878 1.68 19.3201C4.09626 18.8807 7.15222 17.3187 9.36003 15.9601C14.731 12.6548 19.946 8.67138 26.1601 6.60002C29.8082 5.38399 35.9892 2.6509 38.6401 0C40.2214 3.16243 48.3495 4.91529 51.1202 7.56002C59.3636 15.4287 68.2096 23.4035 72.2403 33.4801C74.4986 39.1259 76.3641 49.0145 72.9603 54.1202C70.6066 57.6507 68.69 60.7905 65.5202 63.9602C64.6717 64.8088 62.1036 65.0469 62.6402 66.1202" sodipodi:nodetypes="ccccccccccccccccccc"/><path id="shape3" transform="translate(108.960399670556, 168.240617112466)" fill="#4d2689" fill-rule="evenodd" stroke="#2c1139" stroke-width="2.88001074628524" stroke-linecap="square" stroke-linejoin="bevel" d="M2.40001 1.92001C1.64108 1.16107 0.69314 0.69314 0 0" sodipodi:nodetypes="cc"/><path id="shape4" transform="translate(79.7303199209673, 145.748842930076)" fill="#2c1139" fill-rule="evenodd" stroke="#2c1139" stroke-width="2.88001074628524" stroke-linecap="square" stroke-linejoin="bevel" d="M2.34999 20.5718C-1.7646 16.9718 0.675814 13.8343 1.14998 12.4117C1.38957 10.013 18.5272 -6.17883 28.2701 2.57171C32.3436 8.00309 6.42857 20.5718 2.34999 20.5718Z" sodipodi:nodetypes="cccc"/><path id="shape5" transform="translate(82.6479073546965, 157.264688395334)" fill="#4d2689" fill-rule="evenodd" stroke="#2c1139" stroke-width="2.88001074628524" stroke-linecap="square" stroke-linejoin="bevel" d="M0.107401 8.83093C-0.303495 6.24183 0.536276 5.69727 1.41241 4.64591C4.05256 1.47773 8.29294 -0.349512 12.7524 0.0558975C12.8712 0.0666941 9.38564 6.23268 9.33244 7.61593C9.25439 9.64511 11.3152 20.0917 7.71243 20.216C-1.34102 20.5282 9.32449 8.17094 0.107401 8.83093Z" sodipodi:nodetypes="cccccc"/><path id="shape6" transform="translate(63.1202313190261, 129.240473632302)" fill="none" stroke="#2c1139" stroke-width="2.88001074628524" stroke-linecap="square" stroke-linejoin="bevel" d="M0 9.00003C0 24.5712 18.6001 12.6132 18.6001 0" sodipodi:nodetypes="cc"/><path id="shape7" transform="translate(87.1203192730284, 121.904580163802)" fill="none" stroke="#2c1139" stroke-width="2.88001074628524" stroke-linecap="square" stroke-linejoin="bevel" d="M0 3.49588C0 9.2691 5.7676 13.3184 12 9.8559C21.0509 4.82765 17.0401 -0.323102 17.0401 0.0158666" sodipodi:nodetypes="ccc"/><path id="shape8" transform="translate(66.150242423219, 146.610537289012)" fill="none" stroke="#2c1139" stroke-width="2.88001074628524" stroke-linecap="square" stroke-linejoin="bevel" d="M0 0C0 2.04001 0 4.08001 0 6.12002" sodipodi:nodetypes="cc"/><path id="shape9" transform="translate(74.7902740866599, 144.180528383669)" fill="none" stroke="#2c1139" stroke-width="2.88001074628524" stroke-linecap="square" stroke-linejoin="bevel" d="M0 0C0 1.77581 1.71001 3.4753 1.71001 4.77002" sodipodi:nodetypes="cc"/><path id="shape10" transform="translate(79.6502918973454, 139.050509583501)" fill="none" stroke="#2c1139" stroke-width="2.88001074628524" stroke-linecap="square" stroke-linejoin="bevel" d="M0 0C1.59979 0 3.00428 2.52001 4.59002 2.52001" sodipodi:nodetypes="cc"/><path id="shape11" transform="translate(91.6399040799772, 132.556063891829)" fill="none" stroke="#2c1139" stroke-width="2.88001074628524" stroke-linecap="square" stroke-linejoin="bevel" d="M0.430433 0.0144219C-0.236294 -0.318942 0.070432 5.22589 0.070432 6.40445" sodipodi:nodetypes="cc"/><path id="shape12" transform="translate(97.0824887238957, 133.110487814886)" fill="none" stroke="#2c1139" stroke-width="2.88001074628524" stroke-linecap="square" stroke-linejoin="bevel" d="M0.207868 0C-0.733528 0 1.82787 5.7687 1.82787 6.48002" sodipodi:nodetypes="cc"/><path id="shape13" transform="translate(102.780376663015, 131.049042829287)" fill="none" stroke="#2c1139" stroke-width="2.88001074628524" stroke-linecap="square" stroke-linejoin="bevel" d="M0 0.0814377C0.561446 -0.480009 4.4602 2.02163 5.13002 2.69145" sodipodi:nodetypes="cc"/><path id="shape14" transform="translate(52.3201952241819, 116.880436120076)" fill="none" stroke="#2c1139" stroke-width="2.88001074628524" stroke-linecap="square" stroke-linejoin="bevel" d="M3.12001 0L0 6.96003L16.0801 7.20003L11.28 1.2Z" sodipodi:nodetypes="ccccc"/><path id="shape15" transform="translate(82.8003089557007, 105.840394925983)" fill="none" stroke="#2c1139" stroke-width="2.88001074628524" stroke-linecap="square" stroke-linejoin="bevel" d="M0 7.44003L15.3001 9.81003L8.64003 0L3.36001 2.64001Z" sodipodi:nodetypes="ccccc"/><path id="shape01" transform="translate(68.4002549714872, 164.160612538259)" fill="#4d2689" fill-rule="evenodd" stroke="#2c1139" stroke-width="2.88001074628524" stroke-linecap="square" stroke-linejoin="bevel" d="M96.2404 0C97.8778 0.0909705 103.353 2.13245 104.52 3.30001C109.282 5.41607 115.296 11.8824 120.24 13.86C123.491 15.1603 128.224 14.8076 131.04 16.9201C134.533 19.5393 139.523 20.7677 143.641 22.1401C149.148 23.976 154.437 27.4789 160.021 29.3401C160.841 29.6137 162.745 31.6365 163.621 32.2201C166.446 34.1037 170.45 34.0855 173.341 35.8201C175.761 37.2726 176.278 40.6501 178.981 40.6501C177.664 39.3339 180.004 39.3387 180.181 44.4602C180.287 47.5339 181.133 50.0168 181.261 53.4602C181.332 55.3873 182.599 57.786 182.701 59.7602C183.028 66.1346 180.804 75.2171 179.101 81.1803C178.794 82.2541 177.897 87.2605 176.941 87.3003C175.236 87.3714 167.287 86.8581 164.341 87.8403C161.024 88.9457 157.207 90.3183 153.721 90.3603C143.33 90.4855 133.812 88.8823 123.66 88.7403C108.897 88.5339 95.4319 89.4483 80.8203 89.2803C72.2961 89.1824 63.5023 85.9317 55.0802 85.6803C40.1203 85.2338 25.7815 85.8653 10.8 85.6803C6.96572 85.633 3.5417 82.4403 0 82.4403" sodipodi:nodetypes="ccccccccccccccccccccc"/><path id="shape16" transform="translate(57.6397300666637, 157.01520063552)" fill="#4d2689" fill-rule="evenodd" stroke="#2c1139" stroke-width="2.88001074628524" stroke-linecap="square" stroke-linejoin="bevel" d="M107.101 6.96002C100.418 3.61833 88.231 0 80.6411 0C73.69 0 59.1483 3.67271 54.181 8.64003C51.4751 11.346 52.9631 15.3393 49.741 18.3601C45.7078 22.1412 40.725 23.9787 36.9009 28.4401C35.2226 30.3982 35.7503 33.6324 34.2609 35.7601C31.1692 40.1768 29.8415 37.7704 28.2806 45.0656C25.3959 47.7442 10.4034 52.5996 7.16051 61.1456C3.05956 66.974 -0.951556 63.4816 0.200486 79.1457C0.0585175 83.7795 8.85758 89.1265 11.9408 89.6403C13.1934 89.8491 18.1256 86.9493 17.7009 87.4803C17.2761 88.0113 113.785 10.3017 107.101 6.96002Z" sodipodi:nodetypes="cccccccccccc"/><path id="shape17" transform="translate(47.7601778751943, 122.880457648741)" fill="none" stroke="#3f007f" stroke-width="2.88001074628524" stroke-linecap="square" stroke-linejoin="bevel" d="M0 0C0.948082 0 0.587747 4.37874 0.720003 5.04002C1.5806 9.34303 2.97082 13.7125 4.32002 17.7601C8.46228 30.1869 18.8956 49.4402 35.5201 49.4402" sodipodi:nodetypes="cccc"/><path id="shape18" transform="translate(82.3666027014609, 190.440709266165)" fill="none" stroke="#3f007f" stroke-width="2.88001074628524" stroke-linecap="square" stroke-linejoin="bevel" d="M0.0737043 0C0.0737043 5.965 -0.701125 6.2452 2.77371 9.72004" sodipodi:nodetypes="cc"/><path id="shape19" transform="translate(25.380093767744, 129.960480144051)" fill="none" stroke="#3f007f" stroke-width="2.88001074628524" stroke-linecap="square" stroke-linejoin="bevel" d="M0 0C0 10.6273 7.54997 19.43 13.8601 25.7401C13.9549 25.835 14.2011 25.7873 14.2201 25.9201C15.1098 32.1484 3.06001 38.7518 3.06001 44.4602" sodipodi:nodetypes="cccc"/><path id="shape20" transform="translate(145.800539146652, -1.8000066561315)" fill="none" stroke="#2c1139" stroke-width="2.88001074628524" stroke-linecap="square" stroke-linejoin="bevel" d="M0 61.2002C16.4239 61.2002 30.3557 61.2054 46.4402 61.9202C53.8843 62.2511 61.3201 69.1604 69.4803 63.7202C73.0761 61.323 69.5937 55.0748 69.8403 50.7602C70.1189 45.8838 72.7022 38.9435 73.0803 33.8401C73.3019 30.8483 72.8665 27.8325 73.0803 24.8401C73.1683 23.6071 75.3901 20.3857 75.6003 19.4401C77.0062 13.1133 75.9603 6.48113 75.9603 0" sodipodi:nodetypes="cccccccc"/><path id="shape21" transform="translate(145.800539146652, 27.360101173199)" fill="none" stroke="#2c1139" stroke-width="2.88001074628524" stroke-linecap="square" stroke-linejoin="bevel" d="M0 32.0401C0.0443463 32.0401 0.816639 21.4504 1.08 19.0801C1.76788 12.8892 4.32002 6.72564 4.32002 0" sodipodi:nodetypes="ccc"/><path id="shape22" transform="translate(150.120555121368, 0.7200026624526)" fill="none" stroke="#2c1139" stroke-width="2.88001074628524" stroke-linecap="square" stroke-linejoin="bevel" d="M0 26.6401C2.10935 18.2027 2.16001 8.62964 2.16001 0" sodipodi:nodetypes="cc"/><path id="shape23" transform="translate(149.983672867825, 27.360101173199)" fill="none" stroke="#2c1139" stroke-width="2.88001074628524" stroke-linecap="square" stroke-linejoin="bevel" d="M0.136882 0C-0.560497 2.09214 1.54248 0.39988 3.37689 0.360001C8.65567 0.245245 13.9382 0.245245 19.217 0.360001C20.6879 0.391978 22.5762 1.7574 23.897 1.80001C27.4951 1.91608 31.097 1.80001 34.697 1.80001" sodipodi:nodetypes="ccccc"/><path id="shape24" transform="translate(184.680682919093, -0.7200026624526)" fill="none" stroke="#2c1139" stroke-width="2.88001074628524" stroke-linecap="square" stroke-linejoin="bevel" d="M0 29.8801C2.0454 19.6531 -2.00063 9.04128 2.52001 0" sodipodi:nodetypes="cc"/><path id="shape25" transform="translate(175.73769608041, 28.9165716152829)" fill="none" stroke="#2c1139" stroke-width="2.88001074628524" stroke-linecap="square" stroke-linejoin="bevel" d="M8.94299 0.243536C7.5947 1.59182 -17.8599 -0.723043 23.703 0.243536C28.6831 0.359352 36.8051 0.963539 42.4231 0.963539" sodipodi:nodetypes="ccc"/><path id="shape26" transform="translate(181.440670938056, 28.8264788609623)" fill="none" stroke="#2c1139" stroke-width="2.88001074628524" stroke-linecap="square" stroke-linejoin="bevel" d="M0 30.2137C0 22.0432 1.26332 15.7938 2.52001 8.25366C2.79581 6.59888 4.63404 -1.75741 3.24001 0.333629" sodipodi:nodetypes="ccc"/><path id="shape27" transform="translate(160.020591202308, 4.68001729050619)" fill="none" stroke="#4d2689" stroke-width="2.88001074628524" stroke-linecap="square" stroke-linejoin="bevel" d="M9.54004 0C7.68131 0 1.17715 6.74288 0 7.92003" sodipodi:nodetypes="cc"/><path id="shape28" transform="translate(167.040617138067, 11.1600412312071)" fill="none" stroke="#4d2689" stroke-width="2.88001074628524" stroke-linecap="square" stroke-linejoin="bevel" d="M8.82003 0C6.62573 0 2.26717 3.90643 0 5.04002" sodipodi:nodetypes="cc"/><path id="shape29" transform="translate(191.700708245734, 36.9001363289911)" fill="none" stroke="#4d2689" stroke-width="2.88001074628524" stroke-linecap="square" stroke-linejoin="bevel" d="M20.1601 0C15.0601 0 3.36259 7.61745 0 10.98" sodipodi:nodetypes="cc"/><path id="shape30" transform="translate(104.040384724401, 42.1201557534773)" fill="none" stroke="#4d2689" stroke-width="2.88001074628524" stroke-linecap="square" stroke-linejoin="bevel" d="M0 42.1202C0 40.1523 4.39421 38.9489 5.40002 37.4401C6.63924 35.5813 7.97115 27.9479 11.16 27.7201C12.8358 27.6004 14.5369 27.9577 16.2001 27.7201C18.253 27.4268 18.011 23.3891 19.0801 22.3201C19.7757 21.6245 20.9237 19.2383 21.9601 18.7201C22.742 18.3291 24.3596 18.4409 24.8401 17.6401C26.102 15.5368 27.8519 11.8141 29.8801 10.8C30.9942 10.243 32.3374 10.2914 33.4801 9.72004C34.2576 9.33132 34.9387 6.59694 35.6401 6.48002C39.6414 5.81314 40.0907 5.95785 41.0402 2.16001C41.2091 1.48428 43.2002 0.753876 43.2002 0" sodipodi:nodetypes="cccccccccccc"/><path id="shape31" transform="translate(87.4803234879914, -0.7200026624526)" fill="none" stroke="#4d2689" stroke-width="2.88001074628524" stroke-linecap="square" stroke-linejoin="bevel" d="M0 22.6801C3.77175 18.9083 6.91556 14.1689 12.96 12.96C17.8679 11.9785 20.1132 14.2435 24.8401 11.88C28.507 10.0466 32.7849 8.26353 36.0001 6.12002C36.5493 5.75388 38.5751 3.25865 39.6001 3.24001C45.3269 3.13589 60.311 5.56927 65.8802 0" sodipodi:nodetypes="cccccc"/><path id="shape32" transform="translate(159.840591064478, 66.6002462768659)" fill="none" stroke="#4d2689" stroke-width="2.88001074628524" stroke-linecap="square" stroke-linejoin="bevel" d="M52.5602 0C52.5602 1.37105 48.8602 7.22503 47.5202 7.56003C46.9245 7.70896 44.835 8.02576 44.6402 9.00003C43.4509 14.9462 40.5749 17.0253 36.3601 21.2401C34.8117 22.7885 34.6345 26.9137 34.2001 29.5201C34.1196 30.0032 29.1956 30.3924 29.1601 30.9601C28.9249 34.7228 29.697 38.2822 26.6401 40.3201C24.8499 41.5136 19.8965 42.358 19.4401 44.6402C18.9749 46.9661 20.9568 47.7796 20.5201 50.4002C20.3789 51.2474 17.3765 51.0961 17.2801 51.1202C16.8037 51.2393 14.1765 54.6708 14.0401 55.0802C13.6107 56.3683 11.6149 60.4049 11.88 61.2002C12.2788 62.3964 14.3379 61.0265 13.6801 63.0002C13.08 64.8002 10.2348 64.7997 9.00003 66.2402C5.7237 70.0626 4.17075 76.1096 0 80.2803" sodipodi:nodetypes="ccccccccccccccc"/><path id="shape33" transform="translate(111.306114370422, 71.2802654720275)" fill="none" stroke="#4d2689" stroke-width="2.88001074628524" stroke-linecap="square" stroke-linejoin="bevel" d="M39.8944 56.8802C38.1028 55.0886 53.9745 40.0001 60.7745 34.5601C63.6807 32.2352 69.1937 27.8627 68.6946 27.7201C58.7323 24.8737 30.7549 44.7504 24.7744 41.7602C23.1644 40.9552 27.6646 39.6136 29.0944 38.5201C34.7684 34.1812 30.7332 36.7457 37.7344 32.4001C48.2528 25.8715 59.8113 21.6894 70.1346 15.1201C78.8246 9.59 72.1663 13.6462 79.4946 10.44C79.7346 10.335 82.2986 7.92919 82.0146 7.92003C58.3397 7.15632 34.4147 16.5601 11.0943 16.5601C10.3354 16.5601 12.5538 16.132 13.2543 15.8401C54.2774 -1.2529 -40.045 38.8012 21.5344 13.32C30.4711 9.62209 39.3128 7.13601 48.8945 5.04002C60.0226 2.60574 48.1529 6.48927 58.2545 2.16001C60.3473 1.26311 67.0114 0 64.7345 0C55.688 0 46.0457 2.4711 37.0144 3.60001C35.2777 3.8171 17.7504 4.32002 22.2544 4.32002" sodipodi:nodetypes="ccccccccccccccccc"/><path id="shape34" transform="translate(81.3123815626835, 11.1600415638023)" fill="none" stroke="#40027e" stroke-width="2.88001074628524" stroke-linecap="square" stroke-linejoin="bevel" d="M18.408 57.2402C28.1662 57.2402 31.2313 40.4569 37.1281 34.5601C39.6579 32.0302 42.8894 30.4611 46.4881 28.8001C47.6616 28.2585 51.002 28.274 50.0881 27.3601C49.5786 26.8505 34.7091 31.7469 23.808 35.6401C23.1504 35.875 21.3685 36.6015 21.288 36.3601C20.3965 33.6857 52.5807 10.4461 46.1281 11.88C27.8774 15.9358 47.7711 12.9126 33.888 14.4001C28.8413 14.9408 23.7943 15.4946 18.768 16.2001C12.5946 17.0665 6.57753 18.3601 0.407923 18.3601C-1.63561 18.3601 4.56304 18.5615 6.52795 18.0001C10.8402 16.768 15.8597 15.3142 19.848 13.32C32.987 6.75054 52.5334 10.5147 63.0482 0" sodipodi:nodetypes="ccccccccccccc"/>
</svg>
