<?xml version="1.0" encoding="UTF-8" standalone="no"?>
<!-- Created using Krita: https://krita.org -->

<svg
   width="233.28pt"
   height="233.28pt"
   viewBox="0 0 233.28 233.28"
   version="1.1"
   id="svg1"
   sodipodi:docname="pfp purple.svg"
   inkscape:version="1.4.2 (unknown)"
   xmlns:inkscape="http://www.inkscape.org/namespaces/inkscape"
   xmlns:sodipodi="http://sodipodi.sourceforge.net/DTD/sodipodi-0.dtd"
   xmlns="http://www.w3.org/2000/svg"
   xmlns:svg="http://www.w3.org/2000/svg">
  <sodipodi:namedview
     id="namedview1"
     pagecolor="#ffffff"
     bordercolor="#000000"
     borderopacity="0.25"
     inkscape:showpageshadow="2"
     inkscape:pageopacity="0.0"
     inkscape:pagecheckerboard="0"
     inkscape:deskcolor="#d1d1d1"
     inkscape:document-units="pt"
     inkscape:zoom="2.5484398"
     inkscape:cx="146.95266"
     inkscape:cy="185.79996"
     inkscape:window-width="2240"
     inkscape:window-height="1372"
     inkscape:window-x="0"
     inkscape:window-y="0"
     inkscape:window-maximized="1"
     inkscape:current-layer="svg1" />
  <defs
     id="defs1" />
  <path
     id="shape0"
     fill="none"
     stroke="#c16eea"
     stroke-width="2.88"
     stroke-linecap="square"
     stroke-linejoin="bevel"
     d="m 140.35812,184.87509 c 0,-0.262 19.095,15.689 25.515,18.9 10.88,5.44 2.966,-10.656 10.665,-11.205 4.528,-0.324 27.177,2.959 29.7,-0.405 0.583,-0.777 -18.354,-25.857 -18.09,-29.025 0.396,-4.749 16.901,-2.543 19.17,-3.78 1.957,-1.068 -13.321,-13.547 -15.525,-17.955 -1.233,-7.327 -2.79,-42.612701 -5.13,-55.980301 -4.14,-19.9098 -6.542,-27.3304 -19.44,-44.64 -1.136,-1.1983 -2.334,-8.30741 -3.6,-9.36 -1.102,-0.91674 -2.258,4.2057 -3.449,3.3972 -29.96,-20.33371 -87.355703,-10.332882 -102.390803,21.0828 -4.9889,37.8267 -5.7101,55.210101 -10.62,65.700501 0,4.3288 -20.764915,50.7808 -20.700048,51.2998 0.101223,0.809 18.614748,-6.616 18.900048,-5.76 0.5951,1.785 -13.9465,32.773 -12.78005,32.94 11.28335,1.611 41.44875,-6.895 43.73995,-5.94 0.3022,0.125 10.8892,28.06 14.04,27.36 2.089,-0.465 17.980803,-17.441 20.520003,-19.98 1.3549,-1.355 2.9675,-8.46 4.14,-8.46"
     sodipodi:nodetypes="cccccccccccccccccccc" />
  <path
     id="shape1"
     fill="none"
     stroke="#c16eea"
     stroke-width="2.88"
     stroke-linecap="square"
     stroke-linejoin="bevel"
     d="m 116.59826,189.87004 c -44.922122,-5.94 -48.104993,-37.0782 -48.104993,-70.4703 -1.626139,-1.6261 0.559811,-9.6535 0.855001,-12.015 1.25102,-10.008095 4.24953,-29.147235 14.35509,-34.199967 12.1564,-1.488208 17.693502,5.719092 27.089902,5.445002 15.0017,0.14853 18.353,0.40147 23.3101,-0.405 27.1732,-20.02833 30.9955,23.305165 31.4999,28.349965 -0.3884,33.0152 -0.6749,77.5773 -32.9399,78.9303"
     sodipodi:nodetypes="cccccccc" />
  <path
     id="shape4"
     fill="none"
     stroke="#c16eea"
     stroke-width="2.88"
     stroke-linecap="square"
     stroke-linejoin="bevel"
     d="m 108.49827,135.46477 c -1.7224,0 2.63105,2.49721 4.31999,2.835 2.07604,0.41521 8.23498,-1.49334 8.23498,-4.455"
     sodipodi:nodetypes="ccc" />
  <path
     id="shape5"
     fill="none"
     stroke="#c16eea"
     stroke-width="2.88"
     stroke-linecap="square"
     stroke-linejoin="bevel"
     d="m 131.44827,126.55474 c 0,8.6706 14.292,12.2346 20.79,10.935 11.9923,-2.3984 14.6758,-23.9205 14.31,-33.615 -4.3454,-21.239289 -4.4682,-14.631599 -8.685,-24.929979 -15.6562,-16.78312 -29.115,6.19118 -29.115,11.42998"
     sodipodi:nodetypes="ccccc" />
  <path
     id="shape6"
     fill="none"
     stroke="#c16eea"
     stroke-width="2.88"
     stroke-linecap="square"
     stroke-linejoin="bevel"
     d="m 104.44825,124.79975 c -4.675598,4.6756 -6.435898,11.8502 -14.714998,13.23 -10.82382,1.804 -13.74333,-8.0466 -17.145,-14.85 -5.61568,-8.8914 -0.51985,-40.0701 4.63501,-42.79498 9.47469,-13.79473 26.459988,-6.81279 29.249988,10.39498"
     sodipodi:nodetypes="ccccc" />
  <path
     id="shape7"
     fill="none"
     stroke="#c16eea"
     stroke-width="2.88"
     stroke-linecap="square"
     stroke-linejoin="bevel"
     d="m 68.538266,108.19477 c -2.93827,0 -7.18984,3.18992 -9.45,4.32"
     sodipodi:nodetypes="cc" />
  <path
     id="shape8"
     fill="none"
     stroke="#c16eea"
     stroke-width="2.88"
     stroke-linecap="square"
     stroke-linejoin="bevel"
     d="m 73.398265,83.62477 c -2.83807,0 -6.19529,-8.35529 -8.235,-10.395"
     sodipodi:nodetypes="cc" />
  <path
     id="shape9"
     fill="none"
     stroke="#c16eea"
     stroke-width="2.88"
     stroke-linecap="square"
     stroke-linejoin="bevel"
     d="m 168.03327,111.56977 c 0.71457,0.71457 10.0894,2.79939 12.285,4.995"
     sodipodi:nodetypes="cc" />
  <path
     id="shape10"
     fill="none"
     stroke="#c16eea"
     stroke-width="2.88"
     stroke-linecap="square"
     stroke-linejoin="bevel"
     d="m 162.76827,84.43477 c 0,-4.69983 8.71313,-8.44313 11.61,-11.34"
     sodipodi:nodetypes="cc" />
  <path
     id="shape11"
     fill="none"
     stroke="#c16eea"
     stroke-width="2.88"
     stroke-linecap="square"
     stroke-linejoin="bevel"
     d="m 92.163268,96.404771 c 0,5.225119 0.54,9.770749 0.54,14.759999"
     sodipodi:nodetypes="cc" />
  <path
     id="shape12"
     fill="none"
     stroke="#c16eea"
     stroke-width="2.88"
     stroke-linecap="square"
     stroke-linejoin="bevel"
     d="m 101.16326,93.704771 c -1.349233,1.34924 0.36,18.810299 0.36,19.439999"
     sodipodi:nodetypes="cc" />
  <path
     id="shape13"
     fill="none"
     stroke="#c16eea"
     stroke-width="2.88"
     stroke-linecap="square"
     stroke-linejoin="bevel"
     d="m 136.44327,115.12477 c -0.37756,-0.1888 -1.39505,-18.675047 -2.07,-19.35"
     sodipodi:nodetypes="cc" />
  <path
     id="shape14"
     fill="none"
     stroke="#c16eea"
     stroke-width="2.88"
     stroke-linecap="square"
     stroke-linejoin="bevel"
     d="m 144.99327,112.15474 c -0.0586,0 -0.40796,-1.4847 -0.45,-1.8 -0.72094,-5.407 -1.02544,-11.211724 -2.25,-16.109971 -0.075,-0.3 0.115,-0.27 -0.09,-0.27"
     sodipodi:nodetypes="cccc" />
  <path
     id="shape15"
     fill="none"
     stroke="#c16eea"
     stroke-width="2.88"
     stroke-linecap="square"
     stroke-linejoin="bevel"
     d="m 79.338266,66.209771 c 0.373198,-0.3732 20.4898,-9.855 20.925004,-9.855 1.4101,0 4.2929,7.8748 4.995,9.045 0.8945,1.4908 1.9415,2.6294 2.97,3.915 0.5068,0.6335 2.1612,2.025 1.35,2.025 -9.3643,0 -19.841104,-4.05 -29.835004,-4.05"
     sodipodi:nodetypes="cccccc" />
  <path
     id="shape16"
     fill="none"
     stroke="#c16eea"
     stroke-width="2.88"
     stroke-linecap="square"
     stroke-linejoin="bevel"
     d="m 126.99327,69.449731 c 0,-1.9085 5.22252,-14.625189 7.695,-14.84996 2.8855,-0.262316 7.8117,3.32749 9.855,4.86 2.0225,1.51688 10.6912,2.70782 10.395,5.66996 -0.0648,0.6476 -3.2279,2.0469 -17.415,2.835 -3.78847,0.2105 -7.46409,1.35 -11.475,1.35"
     sodipodi:nodetypes="cccccc" />
  <path
     id="shape17"
     fill="none"
     stroke="#c16eea"
     stroke-width="2.88"
     stroke-linecap="square"
     stroke-linejoin="bevel"
     d="m 132.39325,206.47477 c 0,-1.01068 11.7637,0.57157 17.7037,4.34251 8.4905,5.39016 16.56,15.13806 16.56,25.19996 m -85.679999,-1.44 c 2.98612,-8.7461 5.38612,-14.0261 7.2,-15.84 7.7258,-7.72571 13.190099,-12.39747 26.126299,-12.39747"
     sodipodi:nodetypes="cscccc" />
  <path
     id="shape18"
     fill="none"
     stroke="#c16eea"
     stroke-width="2.88"
     stroke-linecap="square"
     stroke-linejoin="bevel"
     d="m 130.90826,188.65477 c 0,7.46364 0.135,-0.86908 0.135,17.01 0,17.8791 -19.00651,4.6965 -15.93,1.62 3.07651,-3.0765 0.675,-13.97564 0.675,-16.74"
     sodipodi:nodetypes="cccc" />
  <path
     id="shape19"
     fill="none"
     stroke="#c16eea"
     stroke-width="2.88"
     stroke-linecap="square"
     stroke-linejoin="bevel"
     d="m 87.006948,236.69226 c 0,-11.5628 10.3269,-19.6038 18.791302,-24.68248 1.741,-1.04462 7.1072,-4.68081 9.315,-4.05 0.9064,0.25896 1.1115,2.466 1.755,2.565 2.5944,0.39913 5.5917,0.78992 8.235,0.675 0.8053,-0.035 6.075,-8.45681 6.075,-3.03751 8.9531,3.58123 28.2787,15.32869 28.2787,27.85499"
     sodipodi:nodetypes="ccccccc" />
  <path
     id="shape20"
     fill="none"
     stroke="#c16eea"
     stroke-width="2.88"
     stroke-linecap="square"
     stroke-linejoin="bevel"
     d="m 118.44326,211.78477 c 0,4.33001 2.21095,6.2881 -0.09,10.89 -1.7681,3.5362 -7.65,5.8303 -7.65,10.8"
     sodipodi:nodetypes="ccc" />
  <path
     id="shape21"
     fill="none"
     stroke="#c16eea"
     stroke-width="2.88"
     stroke-linecap="square"
     stroke-linejoin="bevel"
     d="m 125.82327,212.41477 c 0,8.75996 2.64371,15.4237 8.82,21.6"
     sodipodi:nodetypes="cc" />
  <path
     id="shape2"
     fill="none"
     stroke="#ca6eff"
     stroke-width="2.88"
     stroke-linecap="square"
     stroke-linejoin="bevel"
     d="m 138.42327,144.46478 c 3.195,80.3308 -37.28707,33.0212 -39.600002,18.72 12.055502,-2.6864 34.200002,-6.986 39.600002,-18.72 z"
     sodipodi:nodetypes="ccc" />
  <path
     id="shape3"
     fill="none"
     stroke="#ca6eff"
     stroke-width="2.88"
     stroke-linecap="square"
     stroke-linejoin="bevel"
     d="m 99.54327,163.18478 c -9.15179,-2.61 30.86998,-14.35341 38.87998,-18.72"
     sodipodi:nodetypes="cc" />
  <path
     id="shape22"
     fill="none"
     stroke="#ca6eff"
     stroke-width="2.88"
     stroke-linecap="square"
     stroke-linejoin="bevel"
     d="m 124.02326,20.174772 c 0,-1.7674 0.12384,-13.95 -3.59999,-17.55"
     sodipodi:nodetypes="cc" />
  <path
     id="shape23"
     fill="none"
     stroke="#ca6eff"
     stroke-width="2.88"
     stroke-linecap="square"
     stroke-linejoin="bevel"
     d="m 117.81326,20.44477 c 0,-3.51947 -8.93482,-7.56 -12.69,-7.56"
     sodipodi:nodetypes="cc" />
</svg>
