<?xml version="1.0" standalone="no"?>
<!DOCTYPE svg PUBLIC "-//W3C//DTD SVG 20010904//EN" "http://www.w3.org/TR/2001/REC-SVG-20010904/DTD/svg10.dtd">
<!-- Created using Krita: https://krita.org -->
<svg xmlns="http://www.w3.org/2000/svg" 
    xmlns:xlink="http://www.w3.org/1999/xlink"
    xmlns:krita="http://krita.org/namespaces/svg/krita"
    xmlns:sodipodi="http://sodipodi.sourceforge.net/DTD/sodipodi-0.dtd"
    width="184.32pt"
    height="184.32pt"
    viewBox="0 0 184.32 184.32">
<defs/>
<path id="shape0" transform="translate(1.79984821137078, -8.34962617254992)" fill="#ffffff" fill-rule="evenodd" stroke="#000000" stroke-width="2.88" stroke-linecap="square" stroke-linejoin="bevel" d="M113.895 143.08C113.895 142.818 132.99 158.769 139.41 161.98C150.29 167.42 142.376 151.325 150.075 150.775C154.603 150.451 177.252 153.734 179.775 150.37C180.358 149.593 161.421 124.513 161.685 121.345C162.081 116.597 178.586 118.803 180.855 117.565C182.812 116.497 167.534 104.018 165.33 99.6096C164.097 92.2828 159.188 61.1597 156.848 47.7921C156.848 43.2724 154.733 40.8905 154.26 37.1046C151.998 19.0097 146.278 12.3392 136.44 4.02963C126.602 -4.27994 50.5167 2.47303 42.8402 4.74963C35.1636 7.02622 36.0436 15.9592 34.2001 21.4896C29.2113 59.3163 25.6101 69.3197 20.7002 79.8096C20.7002 84.139 -0.064715 130.591 0.00015166 131.11C0.101375 131.919 18.6149 124.494 18.9002 125.35C19.4953 127.135 4.9537 158.123 6.12015 158.29C17.4035 159.902 47.5689 151.395 49.8601 152.35C50.1623 152.476 60.7493 180.41 63.9001 179.71C65.9891 179.245 81.8809 162.269 84.4201 159.73C85.775 158.375 87.3876 151.27 88.5601 151.27" sodipodi:nodetypes="cccccccccccccccccccc"/><path id="shape01" transform="translate(43.2341905469389, 22.8262684891614)" fill="#ffffff" fill-rule="evenodd" stroke="#000000" stroke-width="2.88" stroke-linecap="square" stroke-linejoin="bevel" d="M48.7008 116.899C3.77868 110.959 0.595808 79.8208 0.595808 46.4287C-1.03033 44.8026 1.15562 36.7752 1.45081 34.4137C2.70183 24.4056 5.70034 5.26646 15.8059 0.213732C27.9623 -1.27448 33.4994 5.93282 42.8958 5.65873C57.8975 5.80726 61.2488 6.0602 66.2059 5.25373C93.3791 -14.7746 97.2014 28.5589 97.7058 33.6037C97.3174 66.6189 97.0309 111.181 64.7659 112.534" sodipodi:nodetypes="cccccccc"/><path id="shape02" transform="translate(72.5399969788934, 93.6693871739979)" fill="#000000" fill-rule="evenodd" stroke="#000000" stroke-width="2.88" stroke-linecap="square" stroke-linejoin="bevel" d="M0 16.3106C0 27.5202 22.3715 56.2191 35.1 43.4906C41.3423 37.2483 39.7687 30.8907 41.22 23.6906C41.9422 17.6562 41.9818 7.23832 41.13 0.200609C40.4079 -0.882467 32.8438 2.72683 31.86 3.71061C29.8482 5.72239 10.9602 12.1306 7.2 13.0706C5.11566 13.5917 -1.24112 15.9695 0.45 17.6606" sodipodi:nodetypes="ccccccc"/><path id="shape03" transform="translate(74.0276616124853, 96.009779942152)" fill="none" stroke="#ffffff" stroke-width="2.88" stroke-linecap="square" stroke-linejoin="bevel" d="M12.1023 11.5852C12.894 12.3769 -0.586013 17.3167 0.0198353 15.0952C0.240046 14.2878 4.12705 13.7647 5.01484 13.5427C10.9041 12.0704 16.6895 7.98615 22.6998 5.98272C27.5262 4.37394 31.8941 1.91901 36.8073 0.515216C37.0918 0.433944 38.3069 -0.265692 38.4948 0.110216C39.201 1.52255 34.2106 3.94227 33.2298 4.16022C26.692 5.61307 17.8979 12.1927 11.8998 12.1927" sodipodi:nodetypes="cccccccc"/><path id="shape04" transform="translate(83.4390690757611, 83.6999940196554)" fill="none" stroke="#000000" stroke-width="2.88" stroke-linecap="square" stroke-linejoin="bevel" d="M0.395925 1.62C-1.32647 1.62 3.02698 4.11721 4.71592 4.455C6.79196 4.87021 12.9509 2.96166 12.9509 0" sodipodi:nodetypes="ccc"/><path id="shape05" transform="translate(104.084992563152, 22.761478887056)" fill="none" stroke="#000000" stroke-width="2.88" stroke-linecap="square" stroke-linejoin="bevel" d="M2.7 53.6485C2.7 62.3191 16.992 65.8831 23.49 64.5835C35.4823 62.1851 38.1658 40.663 37.8 30.9685C33.4546 9.72921 33.3318 16.3369 29.115 6.03852C13.4588 -10.7446 0 12.2297 0 17.4685" sodipodi:nodetypes="ccccc"/><path id="shape1" transform="translate(45.47318940812, 22.9255783483891)" fill="none" stroke="#000000" stroke-width="2.88" stroke-linecap="square" stroke-linejoin="bevel" d="M34.3118 51.7294C29.6362 56.405 27.8759 63.5796 19.5968 64.9594C8.77298 66.7634 5.85347 56.9128 2.4518 50.1094C-3.16388 41.218 1.93195 10.0393 7.08681 7.31442C16.5615 -6.48031 33.5468 0.50163 36.3368 17.7094" sodipodi:nodetypes="ccccc"/><path id="shape06" transform="translate(34.4249975403422, 58.0499958523418)" fill="none" stroke="#000000" stroke-width="2.88" stroke-linecap="square" stroke-linejoin="bevel" d="M9.45 0C6.51173 0 2.26016 3.18992 0 4.32" sodipodi:nodetypes="cc"/><path id="shape11" transform="translate(40.499997106285, 23.0849983505824)" fill="none" stroke="#000000" stroke-width="2.88" stroke-linecap="square" stroke-linejoin="bevel" d="M8.235 10.395C5.39693 10.395 2.03971 2.03971 0 0" sodipodi:nodetypes="cc"/><path id="shape2" transform="translate(143.369989756249, 61.4249956111989)" fill="none" stroke="#000000" stroke-width="2.88" stroke-linecap="square" stroke-linejoin="bevel" d="M0 0C0.714571 0.714571 10.0894 2.79939 12.285 4.995" sodipodi:nodetypes="cc"/><path id="shape3" transform="translate(138.104990132432, 22.9499983602282)" fill="none" stroke="#000000" stroke-width="2.88" stroke-linecap="square" stroke-linejoin="bevel" d="M0 11.34C0 6.64017 8.71313 2.89687 11.61 0" sodipodi:nodetypes="cc"/><path id="shape07" transform="translate(67.4999992004551, 46.2599994520452)" fill="none" stroke="#000000" stroke-width="2.88" stroke-linecap="square" stroke-linejoin="bevel" d="M0 0C0 5.22512 0.54 9.77075 0.54 14.76" sodipodi:nodetypes="cc"/><path id="shape12" transform="translate(75.9812865108487, 43.559999484027)" fill="none" stroke="#000000" stroke-width="2.88" stroke-linecap="square" stroke-linejoin="bevel" d="M0.518713 0C-0.830524 1.34924 0.878713 18.8103 0.878713 19.44" sodipodi:nodetypes="cc"/><path id="shape21" transform="translate(109.70999543086, 45.6299980996277)" fill="none" stroke="#000000" stroke-width="2.88" stroke-linecap="square" stroke-linejoin="bevel" d="M2.07 19.35C1.69244 19.1612 0.674953 0.674953 0 0" sodipodi:nodetypes="cc"/><path id="shape31" transform="translate(117.539995104761, 43.8291648371278)" fill="none" stroke="#000000" stroke-width="2.88" stroke-linecap="square" stroke-linejoin="bevel" d="M2.79 18.1808C2.73142 18.1808 2.38204 16.6961 2.34 16.3808C1.61906 10.9738 1.31456 5.16908 0.09 0.270833C0.015 -0.0291667 0.205 0.000833337 0 0.000833337" sodipodi:nodetypes="cccc"/><path id="shape08" transform="translate(54.6749977229269, 6.20999974136947)" fill="none" stroke="#000000" stroke-width="2.88" stroke-linecap="square" stroke-linejoin="bevel" d="M0 9.855C0.373198 9.4818 20.4898 0 20.925 0C22.3351 0 25.2179 7.8748 25.92 9.045C26.8145 10.5358 27.8615 11.6744 28.89 12.96C29.3968 13.5935 31.0512 14.985 30.24 14.985C20.8757 14.985 10.3989 10.935 0.405 10.935" sodipodi:nodetypes="cccccc"/><path id="shape13" transform="translate(101.384995777575, 4.4413597706938)" fill="none" stroke="#000000" stroke-width="2.88" stroke-linecap="square" stroke-linejoin="bevel" d="M0.945 14.8636C0.945 12.9551 6.16752 0.238411 8.64 0.01364C11.5255 -0.248676 16.4517 3.34113 18.495 4.87364C20.5175 6.39052 29.1862 7.58146 28.89 10.5436C28.8252 11.1912 25.6621 12.5905 11.475 13.3786C7.68653 13.5891 4.01091 14.7286 0 14.7286" sodipodi:nodetypes="cccccc"/><path id="shape09" transform="translate(58.3191603563052, 156.132622870695)" fill="#ffffff" fill-rule="evenodd" stroke="#000000" stroke-width="2.88" stroke-linecap="square" stroke-linejoin="bevel" d="M49.4108 0.197375C49.4108 -0.813309 63.1407 2.31726 64.5308 3.70738C70.5976 9.77418 81.1358 18.3505 81.1358 28.4124C81.1358 38.4743 -0.301479 27.4674 0.000839644 27.4674C0.303159 27.4674 4.16502 17.9032 6.88584 15.1824C14.6115 7.45665 18.3846 0.0623706 31.3208 0.0623706" sodipodi:nodetypes="cccccc"/><path id="shape010" transform="translate(90.1130942068494, 138.509990103489)" fill="#ffffff" fill-rule="evenodd" stroke="#000000" stroke-width="2.88" stroke-linecap="square" stroke-linejoin="bevel" d="M16.1319 0C16.1319 7.46364 16.2669 -0.869078 16.2669 17.01C16.2669 34.8891 -2.73961 21.7065 0.336899 18.63C3.41341 15.5535 1.0119 4.65436 1.0119 1.89" sodipodi:nodetypes="cccc"/><path id="shape011" transform="translate(62.9099973799568, 156.1997764602)" fill="#ffffff" fill-rule="evenodd" stroke="#000000" stroke-width="2.88" stroke-linecap="square" stroke-linejoin="bevel" d="M0 28.0752C0 16.5124 9.76058 10.7439 18.225 5.66522C19.966 4.6206 25.3322 0.984411 27.54 1.61522C28.4464 1.87418 28.6515 4.08122 29.295 4.18022C31.8894 4.57935 34.8867 4.97014 37.53 4.85522C38.3353 4.8202 43.605 -3.60159 43.605 1.81771C52.5581 5.39894 73.3725 15.4139 73.3725 27.9402" sodipodi:nodetypes="ccccccc"/><path id="shape012" transform="translate(86.0399964166507, 161.639993268101)" fill="none" stroke="#000000" stroke-width="2.88" stroke-linecap="square" stroke-linejoin="bevel" d="M7.74 0C7.74 4.33001 9.95095 6.2881 7.65 10.89C5.8819 14.4262 0 16.7203 0 21.69" sodipodi:nodetypes="ccc"/><path id="shape14" transform="translate(101.159995786941, 162.269993241863)" fill="none" stroke="#000000" stroke-width="2.88" stroke-linecap="square" stroke-linejoin="bevel" d="M0 0C0 8.75996 2.64371 15.4237 8.82 21.6" sodipodi:nodetypes="cc"/>
</svg>
