<?xml version="1.0" standalone="no"?>
<!DOCTYPE svg PUBLIC "-//W3C//DTD SVG 20010904//EN" "http://www.w3.org/TR/2001/REC-SVG-20010904/DTD/svg10.dtd">
<!-- Created using Krita: https://krita.org -->
<svg xmlns="http://www.w3.org/2000/svg" 
    xmlns:xlink="http://www.w3.org/1999/xlink"
    xmlns:krita="http://krita.org/namespaces/svg/krita"
    xmlns:sodipodi="http://sodipodi.sourceforge.net/DTD/sodipodi-0.dtd"
    width="100.8pt"
    height="100.8pt"
    viewBox="0 0 100.8 100.8">
<defs/>
<path id="shape0" transform="translate(36, 21.72)" fill="none" stroke="#ffffff" stroke-width="1.332" stroke-linecap="square" stroke-linejoin="bevel" d="M28.56 5.52L14.4 0L0 5.52L0 63.48L14.16 69.6L28.8 63.36L28.56 5.52L14.64 11.04L14.16 69.6" sodipodi:nodetypes="ccccccccc"/><path id="shape1" transform="translate(36.24, 27.48)" fill="none" stroke="#ffffff" stroke-width="1.332" stroke-linecap="square" stroke-linejoin="bevel" d="M14.4 5.28L0 0" sodipodi:nodetypes="cc"/><path id="shape01" transform="translate(1.68, 8.04)" fill="none" stroke="#ffffff" stroke-width="1.332" stroke-linecap="square" stroke-linejoin="bevel" d="M28.56 5.52L14.4 0L0 5.52L0 63.48L14.16 69.6L28.8 63.36L28.56 5.52L14.64 11.04L14.16 69.6" sodipodi:nodetypes="ccccccccc"/><path id="shape11" transform="translate(1.92, 13.8)" fill="none" stroke="#ffffff" stroke-width="1.332" stroke-linecap="square" stroke-linejoin="bevel" d="M14.4 5.28L0 0" sodipodi:nodetypes="cc"/><path id="shape02" transform="translate(70.32, 8.04)" fill="none" stroke="#ffffff" stroke-width="1.332" stroke-linecap="square" stroke-linejoin="bevel" d="M28.56 5.52L14.4 0L0 5.52L0 63.48L14.16 69.6L28.8 63.36L28.56 5.52L14.64 11.04L14.16 69.6" sodipodi:nodetypes="ccccccccc"/><path id="shape12" transform="translate(70.56, 13.8)" fill="none" stroke="#ffffff" stroke-width="1.332" stroke-linecap="square" stroke-linejoin="bevel" d="M14.4 5.28L0 0" sodipodi:nodetypes="cc"/>
</svg>
